<?xml version="1.0" standalone="no"?>
<!DOCTYPE svg PUBLIC "-//W3C//DTD SVG 20010904//EN"
 "http://www.w3.org/TR/2001/REC-SVG-20010904/DTD/svg10.dtd">
<svg version="1.0" xmlns="http://www.w3.org/2000/svg"
 width="460.000000pt" height="460.000000pt" viewBox="0 0 460.000000 460.000000"
 preserveAspectRatio="xMidYMid meet">

<g transform="translate(0.000000,460.000000) scale(0.100000,-0.100000)"
fill="#000000" stroke="none">
<path d="M12 4588 c-19 -19 -15 -41 6 -33 9 4 74 12 145 18 70 5 127 14 127
18 0 14 -264 11 -278 -3z"/>
<path d="M1385 4590 c3 -5 26 -10 50 -10 24 0 47 -5 50 -10 10 -17 68 -43 110
-50 22 -4 57 -15 78 -24 l37 -16 0 60 c0 63 -13 79 -30 35 -12 -32 -40 -32
-105 0 -39 20 -66 25 -123 25 -46 0 -71 -4 -67 -10z"/>
<path d="M2142 4553 c3 -47 4 -48 63 -79 33 -18 68 -33 78 -33 10 -1 28 -7 40
-15 12 -7 34 -16 48 -20 l27 -6 -4 93 c-1 50 -3 95 -3 100 -1 4 -57 7 -127 7
l-125 0 3 -47z"/>
<path d="M2582 4578 c2 -15 10 -23 23 -23 18 0 20 -8 23 -70 2 -51 6 -66 13
-55 8 11 9 1 5 -35 -3 -33 -1 -58 8 -75 13 -23 14 -20 21 45 3 39 9 77 13 85
3 8 11 40 18 70 9 45 12 49 14 25 3 -34 6 -62 8 -87 4 -34 22 -18 22 20 1 20
5 56 9 80 l8 42 -94 0 c-92 0 -94 -1 -91 -22z"/>
<path d="M2590 4457 c0 -20 4 -37 9 -37 10 0 9 55 -2 66 -4 4 -7 -9 -7 -29z"/>
<path d="M2391 4334 c0 -11 3 -14 6 -6 3 7 2 16 -1 19 -3 4 -6 -2 -5 -13z"/>
<path d="M2320 4176 c0 -64 22 -89 35 -39 3 15 14 32 23 39 15 11 14 14 -11
23 -42 16 -47 14 -47 -23z"/>
<path d="M2594 4162 c3 -5 23 -17 45 -26 35 -16 59 -51 45 -65 -2 -3 -23 0
-47 6 -23 6 -45 9 -49 7 -15 -9 -9 -84 7 -90 8 -4 75 -1 148 6 72 7 161 13
197 14 53 1 64 4 60 16 -2 8 -4 35 -5 60 0 54 -19 66 -23 15 -2 -19 -5 -35 -7
-35 -2 0 -26 12 -52 26 -33 18 -57 24 -77 20 -16 -4 -35 -1 -42 5 -15 12 -60
15 -90 5 -16 -5 -23 0 -32 19 -9 20 -19 25 -47 25 -20 0 -34 -4 -31 -8z"/>
<path d="M2305 4070 c-3 -4 2 -11 11 -14 22 -8 34 -7 34 3 0 12 -39 21 -45 11z"/>
<path d="M450 4053 c-19 -1 -63 -6 -97 -9 l-62 -5 2 -32 c2 -36 14 -52 40 -53
9 0 34 -1 55 -2 28 -2 40 -7 47 -24 8 -19 17 -23 49 -21 22 2 41 5 43 7 2 2 7
36 10 75 l6 71 -29 -2 c-16 0 -45 -3 -64 -5z"/>
<path d="M2000 4050 c0 -5 5 -10 11 -10 5 0 7 5 4 10 -3 6 -8 10 -11 10 -2 0
-4 -4 -4 -10z"/>
<path d="M2076 4043 c-16 -8 -41 -26 -55 -39 -18 -16 -38 -24 -63 -24 -21 0
-38 -5 -38 -11 0 -5 -5 -7 -11 -3 -8 4 -8 9 0 17 20 20 11 30 -9 12 -12 -10
-19 -24 -16 -31 4 -10 -11 -12 -64 -8 -43 3 -71 1 -75 -6 -5 -7 3 -9 22 -4 21
5 25 4 17 -5 -14 -15 -54 -23 -54 -10 0 5 -28 -10 -62 -34 l-63 -42 -65 17
c-134 35 -292 69 -298 63 -3 -3 -1 -15 6 -25 10 -17 10 -20 -5 -20 -16 -1 -16
-2 1 -15 11 -8 27 -15 35 -15 8 0 34 -9 58 -21 26 -13 56 -19 73 -17 18 3 30
0 30 -6 0 -6 15 -11 33 -12 76 -2 86 -7 102 -47 10 -25 13 -51 9 -78 -5 -27
-3 -44 4 -48 7 -4 16 -29 21 -55 5 -28 21 -63 40 -87 61 -75 72 -149 22 -149
-41 0 -56 -65 -25 -109 19 -26 21 -80 4 -91 -16 -10 -2 -37 22 -43 13 -4 19
-11 15 -21 -4 -9 2 -21 14 -30 12 -8 23 -29 26 -51 5 -34 1 -41 -47 -85 -41
-38 -61 -49 -98 -54 -26 -4 -58 -16 -71 -26 -20 -17 -21 -22 -10 -36 16 -20
23 -100 10 -109 -6 -3 -8 -11 -5 -18 2 -7 -5 -18 -16 -24 -31 -20 -67 0 -152
85 -59 58 -76 82 -72 96 4 12 2 16 -5 12 -21 -14 -11 3 22 33 17 17 26 31 20
31 -7 0 -13 -4 -13 -9 0 -12 -48 -7 -61 6 -5 5 -7 17 -3 26 7 20 60 23 98 6
20 -9 29 -9 41 1 22 18 18 28 -10 22 -13 -2 -37 -1 -52 3 l-28 7 25 20 c19 15
33 18 63 14 41 -7 44 -5 83 51 17 24 10 48 -9 36 -7 -4 -43 -6 -82 -4 -130 6
-154 13 -142 45 5 13 25 16 99 18 51 1 73 3 48 5 -24 3 -50 9 -58 15 -29 24
-4 33 92 33 l98 1 -5 -38 c-5 -35 6 -54 15 -27 2 6 28 14 56 17 38 3 52 8 48
18 -3 7 -1 26 3 42 6 19 5 29 -3 29 -6 1 -46 4 -88 7 -74 6 -78 6 -78 -14 0
-11 -6 -20 -14 -20 -14 0 -34 19 -34 33 0 18 -9 16 -27 -3 -24 -27 -75 -27
-82 0 -7 26 -19 26 -26 -1 -7 -26 -42 -22 -42 5 0 25 -28 34 -129 40 -80 5
-84 4 -79 -14 6 -22 4 -23 -106 -20 -58 1 -63 0 -52 -14 10 -12 32 -16 87 -16
40 0 76 -5 79 -10 11 -18 -16 -40 -44 -36 -62 11 -115 10 -118 -1 -3 -7 20
-14 64 -18 87 -8 95 -11 91 -32 -3 -15 -15 -18 -75 -18 -91 0 -103 -10 -21
-18 79 -7 100 -15 96 -36 -3 -12 -20 -17 -78 -22 l-75 -5 103 -2 c99 -2 103
-3 114 -27 8 -19 9 -28 0 -37 -7 -7 -8 -17 -2 -28 14 -26 7 -214 -8 -233 -11
-13 -11 -26 -1 -74 14 -61 13 -134 -1 -143 -5 -3 -14 -18 -19 -34 -6 -15 -20
-30 -32 -33 -12 -4 -22 -17 -26 -35 -6 -32 -38 -59 -59 -51 -8 3 -14 0 -14 -7
0 -6 4 -8 10 -5 6 3 10 -1 10 -9 0 -8 -5 -18 -10 -21 -6 -4 -17 -23 -26 -43
-19 -47 -28 -52 -91 -52 -28 0 -58 -3 -67 -6 -31 -12 -15 -20 38 -20 61 1 76
-7 58 -32 -36 -51 -46 -89 -46 -173 0 -69 4 -90 20 -111 26 -36 129 -85 195
-93 48 -6 60 -3 109 23 33 17 68 47 87 73 58 78 77 99 89 99 19 0 9 -340 -15
-506 -12 -77 -27 -160 -35 -185 -8 -24 -22 -116 -31 -204 -9 -88 -26 -189 -36
-225 -20 -65 -52 -242 -64 -355 -8 -70 2 -100 50 -160 l35 -42 -10 -70 c-6
-45 -6 -90 0 -129 6 -32 10 -62 10 -66 0 -10 1380 -10 1381 0 0 4 2 14 3 22 2
8 9 54 16 102 10 70 16 90 33 101 12 8 32 34 45 59 27 54 27 99 11 573 -8 229
-15 328 -24 348 -8 16 -19 99 -26 190 -12 165 -4 276 32 469 13 65 12 65 109
8 30 -18 101 -57 158 -87 99 -53 106 -55 165 -51 71 5 119 25 171 72 36 33 36
35 36 112 0 51 -5 83 -14 93 -7 9 -20 36 -28 61 -8 25 -27 63 -42 84 -14 21
-26 42 -26 47 0 7 84 35 165 54 17 4 71 11 120 16 50 5 119 13 155 18 36 5
135 19 220 31 173 24 287 50 371 85 37 16 100 29 185 39 101 12 130 19 137 32
6 10 21 28 34 40 12 12 23 24 23 28 0 3 -29 6 -64 6 -72 0 -96 6 -96 25 0 16
42 32 108 40 l52 7 0 58 c0 64 -6 72 -57 75 -46 3 -72 28 -55 55 17 27 16 28
-24 45 -46 19 -42 20 -46 -12 -4 -38 -19 -38 -63 2 -22 20 -51 38 -65 41 -14
3 -37 21 -50 41 -21 31 -22 37 -10 56 7 12 14 48 15 79 1 38 7 64 18 76 21 23
21 32 3 32 -28 0 -30 34 -10 230 3 30 12 65 19 76 12 19 12 24 -5 39 -14 13
-20 35 -23 98 -3 45 -11 120 -19 167 l-14 85 -15 -35 c-9 -19 -24 -42 -34 -50
-11 -8 -16 -10 -12 -4 3 6 1 18 -6 27 -13 17 -34 17 -677 -18 -157 -8 -404
-19 -550 -25 -284 -11 -306 -13 -332 -37 -19 -17 -58 -13 -141 14 -40 12 -52
22 -63 49 -26 62 -103 152 -145 168 -22 9 -42 22 -45 30 -3 8 -13 12 -23 9
-14 -3 -20 3 -24 26 -7 35 -26 39 -71 14z m2076 -323 c-2 -20 1 -56 7 -80 6
-27 7 -85 3 -143 -4 -56 -4 -101 2 -107 5 -5 2 -26 -8 -51 -10 -23 -16 -57
-14 -75 2 -23 -4 -40 -20 -57 -21 -22 -28 -24 -130 -22 -96 2 -359 -18 -389
-29 -6 -3 -27 0 -45 5 -18 6 -82 13 -143 15 -60 2 -135 8 -165 12 l-55 7 0 50
c0 34 -4 50 -12 49 -7 -1 -56 -2 -109 -2 -86 -2 -94 -4 -80 -17 13 -13 19 -14
36 -3 17 11 22 11 30 -2 14 -21 12 -58 -2 -63 -7 -2 -21 0 -32 5 -10 6 -29 8
-42 5 -13 -2 -24 -1 -24 2 0 4 -19 5 -41 3 -28 -3 -44 0 -50 9 -7 12 -9 12 -9
0 0 -9 -4 -10 -12 -4 -7 6 -30 9 -50 9 -24 -1 -40 4 -43 12 -4 11 -10 8 -25
-11 -17 -21 -19 -36 -15 -108 3 -46 10 -88 15 -93 18 -18 11 -44 -15 -48 -13
-3 -26 0 -28 5 -2 7 -6 7 -9 2 -3 -6 -2 -20 3 -32 7 -19 12 -21 31 -14 13 5
50 5 83 0 33 -5 97 -8 143 -8 53 1 88 -4 98 -12 12 -10 20 -10 33 -2 13 8 58
9 157 2 76 -5 200 -11 274 -14 74 -2 167 -7 207 -11 40 -3 76 -3 81 0 4 2 5
30 2 60 -6 59 -2 66 46 66 l24 0 -1 -232 c-1 -128 -4 -244 -8 -258 -6 -22 -12
-25 -61 -27 -30 0 -147 -6 -260 -12 -113 -6 -270 -14 -350 -17 l-145 -6 -30
29 c-16 17 -47 57 -68 89 -21 32 -53 80 -71 106 l-33 48 -12 -40 c-6 -21 -27
-55 -45 -75 -32 -34 -38 -36 -88 -33 l-53 3 2 50 c1 29 -3 53 -10 58 -8 6 -7
7 4 4 10 -3 29 8 50 30 21 22 27 34 17 30 -12 -4 -18 -1 -18 8 0 8 -4 15 -9
15 -5 0 -12 8 -15 18 -3 9 -16 22 -28 27 -16 7 -29 28 -42 70 -11 33 -21 67
-24 75 -3 8 -4 19 -3 23 4 19 -34 66 -65 81 -38 18 -42 31 -18 58 15 15 15 18
1 23 -12 5 -13 12 -4 34 6 17 7 36 2 47 -8 16 -10 13 -13 -16 l-4 -35 -17 50
c-10 28 -23 49 -29 48 -6 -2 -9 8 -6 23 4 21 2 25 -11 20 -9 -3 -13 -2 -10 4
3 5 -5 15 -19 22 -25 11 -34 32 -18 41 4 2 1 2 -7 0 -8 -2 -17 1 -21 7 -11 17
-127 22 -164 6 -22 -9 -38 -11 -50 -4 -9 5 -54 13 -99 18 l-82 8 -42 -34 c-23
-19 -46 -34 -51 -34 -6 0 -12 -5 -14 -12 -3 -7 -14 -9 -32 -4 -27 7 -28 9 -23
49 5 40 23 62 66 87 13 7 14 11 4 21 -15 15 -17 79 -3 79 6 0 10 8 10 18 0 9
10 30 23 46 19 23 31 29 65 29 24 0 56 -9 77 -22 20 -11 43 -21 51 -21 8 0 17
-7 20 -15 6 -14 120 -75 142 -75 6 0 18 -11 27 -23 8 -13 26 -30 40 -37 13 -7
22 -17 19 -21 -2 -4 5 -6 16 -4 11 2 20 0 20 -4 0 -5 9 -11 20 -14 12 -3 20
-14 20 -27 0 -19 5 -21 42 -18 l42 3 2 48 c1 27 4 51 7 53 2 3 15 -4 27 -14
18 -15 31 -17 58 -11 42 9 42 8 64 71 24 69 36 79 99 84 30 2 88 6 129 10 97
8 98 8 116 -138 l6 -47 39 25 c21 13 51 24 66 24 29 0 30 2 75 123 6 15 20 29
32 32 11 2 44 8 71 14 50 10 118 20 185 27 19 2 138 6 265 8 214 4 231 3 253
-15 35 -27 66 -24 95 10 23 28 53 40 87 37 11 -1 14 -11 12 -36z m-2352 -410
c0 -5 9 -12 20 -15 12 -4 20 -15 20 -28 1 -12 7 -33 15 -47 12 -23 12 -26 -7
-36 -14 -8 -27 -8 -43 0 -37 17 -81 136 -59 159 7 7 54 -22 54 -33z m560 -38
c0 -55 -28 -82 -86 -82 -34 0 -51 6 -69 25 -14 13 -25 28 -25 33 0 9 58 6 89
-4 7 -2 24 6 36 18 30 29 49 47 53 48 1 0 2 -17 2 -38z m-209 -24 l18 -47 -37
1 c-20 1 -48 -2 -61 -6 l-24 -8 21 27 c12 15 22 35 22 44 0 20 20 43 33 38 6
-2 18 -24 28 -49z m-214 9 c7 -4 29 -5 51 -1 29 4 40 2 45 -8 7 -19 -2 -32
-30 -47 -30 -15 -59 -14 -99 5 -27 13 -32 19 -23 30 8 10 8 14 0 14 -6 0 -11
4 -11 8 0 10 51 9 67 -1z m480 -49 c-3 -7 -5 -2 -5 12 0 14 2 19 5 13 2 -7 2
-19 0 -25z m-1163 -11 c17 -13 17 -14 1 -30 -20 -21 -34 -22 -41 -2 -7 17 2
45 14 45 4 0 16 -6 26 -13z m1091 -22 c-30 -25 -55 -31 -69 -18 -6 6 63 36 94
41 3 1 -8 -10 -25 -23z m-651 -21 c9 -22 8 -24 -9 -18 -8 4 -15 12 -15 20 0
19 16 18 24 -2z m-624 -32 c0 -24 -8 -32 -26 -25 -17 6 -18 30 -1 36 22 9 27
7 27 -11z m3006 7 c8 -13 -16 -89 -28 -89 -15 0 -108 50 -108 58 0 16 16 30
40 35 48 9 89 7 96 -4z m-2333 -49 c6 -23 -1 -25 -25 -6 -18 13 -14 26 8 26 6
0 14 -9 17 -20z m-683 -35 c0 -8 -7 -15 -15 -15 -16 0 -20 12 -8 23 11 12 23
8 23 -8z m1334 -30 c-4 -8 -8 -15 -10 -15 -2 0 -4 7 -4 15 0 8 4 15 10 15 5 0
7 -7 4 -15z m30 -10 c-4 -8 -8 -15 -10 -15 -2 0 -4 7 -4 15 0 8 4 15 10 15 5
0 7 -7 4 -15z m1625 -4 c10 -16 4 -209 -10 -311 -11 -76 -15 -87 -45 -114 -19
-16 -34 -36 -34 -43 0 -7 -4 -13 -8 -13 -19 0 -32 55 -32 133 0 45 -5 111 -10
147 -5 35 -6 100 -3 143 l6 79 65 -5 c35 -3 68 -10 71 -16z m-1550 -36 c2 -3
-3 -5 -13 -5 -9 0 -14 -4 -11 -10 11 -18 -22 -10 -39 9 -18 19 -17 20 20 15
21 -3 40 -7 43 -9z m-86 -109 l15 -23 -56 10 c-32 5 -64 16 -73 23 -15 13 -15
18 -1 49 l15 33 43 -34 c23 -19 49 -45 57 -58z m1763 26 c25 3 29 -1 32 -25 4
-34 -23 -97 -41 -97 -11 0 -22 34 -43 130 -5 23 -4 24 9 7 10 -12 25 -17 43
-15z m-2346 -7 c12 -23 12 -27 -8 -41 -15 -10 -22 -26 -22 -48 0 -19 -8 -44
-19 -57 l-18 -23 -11 35 c-22 72 -23 89 -7 89 8 0 25 16 37 35 13 19 26 35 29
35 3 0 12 -11 19 -25z m423 -108 c-6 -82 -17 -89 -43 -27 -11 27 -10 34 15 70
15 22 29 39 30 38 2 -2 0 -38 -2 -81z m-54 -82 c5 2 18 -5 30 -17 23 -20 23
-20 16 -267 -4 -135 -10 -275 -13 -311 l-7 -65 -17 115 c-10 63 -20 142 -23
175 -9 86 -45 264 -61 302 -19 42 -19 42 18 80 l33 34 8 -26 c5 -14 12 -23 16
-20z m-314 16 c22 -10 57 -33 78 -51 34 -31 37 -38 37 -89 0 -31 7 -98 15
-150 9 -52 15 -110 14 -130 -1 -20 4 -76 10 -126 28 -226 29 -246 10 -259 -19
-13 -16 -56 3 -56 5 0 6 5 3 10 -3 6 -1 10 4 10 6 0 12 -23 13 -52 1 -29 3
-82 4 -118 2 -36 4 -138 5 -227 2 -90 6 -163 10 -163 4 0 2 -16 -4 -36 -8 -27
-8 -37 1 -43 9 -6 10 -15 3 -34 -6 -15 -11 -55 -12 -89 -2 -35 -7 -69 -12 -75
-5 -7 -6 -25 -1 -40 4 -16 8 -32 9 -38 0 -5 4 -15 8 -22 5 -7 -4 -14 -25 -19
-18 -4 -27 -9 -20 -11 30 -11 7 -22 -43 -22 -55 1 -55 1 -56 33 -1 32 -3 29
-13 -15 -8 -35 -54 -49 -73 -23 -8 11 -27 18 -54 18 -24 1 -44 6 -46 14 -3 6
3 12 12 12 13 0 15 3 7 13 -6 7 -10 24 -8 38 3 13 7 56 11 94 3 39 10 86 15
105 5 19 12 55 15 80 4 25 10 64 15 86 40 178 26 791 -25 1121 -18 118 -18
110 0 88 14 -17 14 -15 -1 20 -10 22 -18 52 -18 67 -1 14 -4 30 -8 34 -4 4 -3
13 3 20 12 15 109 10 141 -7 13 -7 18 -7 14 -1 -3 6 -29 18 -56 27 -28 9 -50
18 -50 21 0 9 27 3 65 -15z m2204 -220 c26 -17 -16 -45 -68 -47 -26 0 -60 -8
-77 -17 -27 -14 -34 -14 -50 -2 -29 21 -7 35 71 46 37 5 75 14 84 19 20 12 23
12 40 1z m-281 -68 c20 -38 -28 -84 -70 -68 -17 7 -50 64 -42 76 3 5 27 9 54
9 37 0 52 -4 58 -17z m-190 -15 c7 -7 12 -21 12 -33 0 -51 -57 -61 -89 -16
-33 46 -28 61 22 61 24 0 48 -5 55 -12z m-188 -16 c19 -16 21 -22 11 -40 -26
-49 -94 -53 -111 -6 -19 50 -13 56 61 63 9 0 27 -7 39 -17z m-206 -28 c17 -43
2 -71 -41 -79 -30 -5 -34 -2 -53 37 -11 23 -20 45 -20 50 0 4 24 8 54 8 40 0
55 -4 60 -16z m-846 -54 c-3 -33 -7 -40 -24 -40 -23 0 -74 35 -74 51 0 6 4 8
9 5 5 -4 12 0 14 6 3 8 6 6 6 -4 1 -19 41 -46 41 -28 0 6 5 8 10 5 6 -4 10 5
10 19 0 14 2 26 5 26 3 0 4 -18 3 -40z m27 -102 c8 -21 12 -38 8 -38 -5 0 -16
21 -25 46 -19 54 -7 47 17 -8z m193 23 c3 -10 -1 -12 -16 -9 -19 5 -22 -1 -32
-48 -6 -29 -15 -56 -20 -59 -5 -3 -7 -13 -4 -23 4 -11 3 -13 -3 -5 -4 6 -22
13 -38 16 l-30 4 33 2 c37 1 46 16 57 95 6 40 11 47 28 44 11 -2 23 -9 25 -17z
m-158 -96 c14 -19 14 -19 -2 -6 -10 7 -18 18 -18 24 0 6 1 8 3 6 1 -2 9 -13
17 -24z m-12 -30 c-3 -3 -9 2 -12 12 -6 14 -5 15 5 6 7 -7 10 -15 7 -18z
m-242 -154 c-11 -17 -105 -61 -111 -51 -3 5 18 21 47 34 58 27 72 30 64 17z
m104 -1005 c0 -8 -4 -18 -10 -21 -13 -8 -52 14 -45 26 10 15 55 11 55 -5z
m-125 -94 c-3 -3 -11 0 -18 7 -9 10 -8 11 6 5 10 -3 15 -9 12 -12z m-88 2 c-3
-3 -12 -4 -19 -1 -8 3 -5 6 6 6 11 1 17 -2 13 -5z m-69 -11 c-10 -2 -26 -2
-35 0 -10 3 -2 5 17 5 19 0 27 -2 18 -5z m-80 -10 c-10 -2 -28 -2 -40 0 -13 2
-5 4 17 4 22 1 32 -1 23 -4z m172 -89 c0 -7 3 -21 6 -31 4 -14 4 -15 -4 -4 -5
7 -14 11 -19 8 -5 -3 -10 0 -10 8 0 8 5 15 11 15 6 1 -2 12 -19 26 l-30 26 33
-18 c17 -10 32 -24 32 -30z m-77 -21 c-7 -2 -19 -2 -25 0 -7 3 -2 5 12 5 14 0
19 -2 13 -5z"/>
<path d="M3477 3682 c-8 -10 -8 -29 1 -71 7 -31 12 -78 12 -104 l0 -47 55 0
55 0 0 34 c0 19 8 42 17 51 15 16 18 16 28 1 14 -18 51 -21 88 -7 25 10 54 71
59 126 l3 30 -153 0 c-115 0 -156 -3 -165 -13z"/>
<path d="M2490 3237 c0 -8 11 -20 25 -27 14 -8 36 -28 49 -45 14 -18 41 -48
60 -69 26 -26 36 -45 36 -68 0 -30 1 -31 15 -12 10 13 14 46 15 110 0 105 3
101 -94 110 -33 2 -71 7 -83 10 -15 3 -23 0 -23 -9z"/>
<path d="M2737 2811 c-4 -17 -3 -21 5 -13 5 5 8 16 6 23 -3 8 -7 3 -11 -10z"/>
<path d="M2692 2644 c-12 -8 -22 -20 -22 -27 0 -8 3 -8 12 1 7 7 20 12 30 12
10 0 18 4 18 9 0 18 -17 20 -38 5z"/>
<path d="M820 4036 c0 -9 5 -16 10 -16 6 0 10 4 10 9 0 6 -4 13 -10 16 -5 3
-10 -1 -10 -9z"/>
<path d="M4265 4028 c-25 -20 -27 -25 -23 -79 4 -55 16 -86 25 -64 11 31 19
33 159 26 158 -7 174 -5 174 15 0 10 -13 14 -45 14 -40 0 -48 4 -62 29 -12 20
-32 33 -72 46 -31 9 -66 21 -79 26 -34 13 -46 11 -77 -13z m25 -58 c0 -11 -6
-20 -13 -20 -19 0 -27 10 -20 26 8 21 33 17 33 -6z"/>
<path d="M0 4000 c0 -26 3 -30 29 -30 53 0 92 12 87 26 -3 8 -1 14 5 14 6 0 7
5 4 10 -3 6 -33 10 -66 10 -59 0 -59 0 -59 -30z"/>
<path d="M217 4018 c4 -7 8 -16 8 -20 0 -11 15 -22 15 -10 0 5 3 17 6 26 4 12
0 16 -16 16 -14 0 -19 -4 -13 -12z"/>
<path d="M0 3944 c0 -8 5 -12 10 -9 6 3 10 10 10 16 0 5 -4 9 -10 9 -5 0 -10
-7 -10 -16z"/>
<path d="M6 3864 c-3 -9 -6 -30 -6 -48 l0 -33 195 5 c107 3 195 3 196 1 0 -2
6 -73 12 -158 16 -208 33 -208 29 -1 -3 149 -2 162 18 187 34 43 27 53 -37 53
-32 0 -109 -7 -170 -16 -119 -17 -192 -13 -217 11 -12 13 -15 12 -20 -1z"/>
<path d="M4267 3833 c15 -100 19 -115 28 -114 5 0 13 15 17 33 5 25 1 43 -18
76 -14 23 -27 42 -29 42 -2 0 -1 -17 2 -37z"/>
<path d="M985 3800 c-6 -10 17 -70 27 -70 4 0 8 4 8 9 0 20 36 20 114 2 44
-10 126 -27 180 -37 64 -11 106 -24 118 -36 18 -18 19 -17 29 6 19 41 -4 65
-54 57 -4 -1 -42 7 -85 17 -42 11 -90 20 -105 21 -16 0 -52 7 -80 15 -63 17
-146 26 -152 16z"/>
<path d="M4533 3802 c-15 -2 -23 -10 -23 -23 0 -14 7 -19 29 -19 43 0 47 -16
10 -49 -40 -37 -34 -61 16 -61 l35 0 0 80 c0 88 5 83 -67 72z"/>
<path d="M4358 3793 c6 -2 18 -2 25 0 6 3 1 5 -13 5 -14 0 -19 -2 -12 -5z"/>
<path d="M687 3733 c-4 -3 -7 -11 -7 -17 0 -6 5 -5 12 2 6 6 9 14 7 17 -3 3
-9 2 -12 -2z"/>
<path d="M220 3723 c-54 -6 -64 -11 -51 -26 6 -8 10 -34 10 -58 -1 -116 14
-202 28 -161 3 6 12 12 21 12 13 0 17 -9 16 -40 -1 -22 2 -40 6 -40 5 0 15 -3
24 -6 11 -4 15 3 18 33 2 26 8 39 20 41 12 2 18 -7 23 -39 14 -80 22 -16 17
139 l-4 152 -47 -2 c-25 0 -62 -3 -81 -5z"/>
<path d="M23 3713 c-22 -4 -23 -8 -23 -127 l0 -123 25 5 c23 4 25 1 25 -32 0
-31 3 -36 24 -36 22 0 24 5 31 70 4 39 4 111 0 160 -8 99 -7 98 -82 83z"/>
<path d="M1010 3674 c0 -28 3 -86 7 -128 5 -62 10 -79 26 -87 18 -10 19 -8 12
39 -6 44 -4 52 15 65 20 14 28 14 69 1 25 -7 49 -14 52 -14 3 0 6 24 5 53 l-1
52 -45 12 c-25 6 -59 12 -77 12 -21 1 -37 9 -47 23 -15 22 -16 20 -16 -28z"/>
<path d="M1255 3609 c4 -24 8 -44 9 -45 58 -26 112 -17 122 22 8 32 0 40 -48
48 -24 4 -54 10 -67 13 -22 6 -23 4 -16 -38z"/>
<path d="M4483 3543 l-83 -4 5 -34 c5 -42 -20 -69 -40 -42 -19 26 -27 21 -23
-15 3 -30 6 -33 35 -30 17 2 34 -2 37 -7 4 -6 19 -8 34 -5 23 5 30 1 39 -18
10 -22 11 -22 32 19 11 23 21 51 21 62 0 21 22 33 45 25 11 -5 15 1 15 25 0
24 -4 31 -17 29 -10 -1 -55 -4 -100 -5z m14 -59 c-3 -3 -12 -4 -19 -1 -8 3 -5
6 6 6 11 1 17 -2 13 -5z"/>
<path d="M680 3501 c0 -10 97 -19 112 -10 11 7 -41 19 -83 19 -16 0 -29 -4
-29 -9z"/>
<path d="M4490 3350 c0 -5 5 -10 10 -10 6 0 10 5 10 10 0 6 -4 10 -10 10 -5 0
-10 -4 -10 -10z"/>
<path d="M478 3223 c-2 -10 -1 -56 2 -103 l7 -85 1 103 c2 99 -1 121 -10 85z"/>
<path d="M1440 3142 c0 -5 7 -15 15 -22 8 -7 15 -8 15 -2 0 5 -7 15 -15 22 -8
7 -15 8 -15 2z"/>
<path d="M4443 3123 c-19 -7 -16 -53 3 -60 24 -9 49 10 49 38 0 24 -21 32 -52
22z"/>
<path d="M4338 3108 c-8 -22 3 -46 24 -51 21 -6 32 11 26 40 -4 21 -44 30 -50
11z"/>
<path d="M860 2962 c0 -12 149 -21 157 -9 2 4 -18 7 -45 7 -27 0 -64 3 -81 6
-19 4 -31 2 -31 -4z"/>
<path d="M860 2890 c0 -5 23 -10 50 -10 28 0 50 5 50 10 0 6 -22 10 -50 10
-27 0 -50 -4 -50 -10z"/>
<path d="M871 2821 c-8 -6 -9 -11 -3 -15 6 -3 14 -1 17 5 9 14 2 20 -14 10z"/>
<path d="M1011 2774 c0 -11 3 -14 6 -6 3 7 2 16 -1 19 -3 4 -6 -2 -5 -13z"/>
<path d="M946 2771 c-4 -7 -5 -15 -2 -18 9 -9 19 4 14 18 -4 11 -6 11 -12 0z"/>
<path d="M894 2706 c-8 -22 3 -33 18 -18 9 9 9 15 0 24 -9 9 -13 7 -18 -6z"/>
<path d="M870 2320 l-25 -8 28 -1 c15 -1 27 4 27 9 0 6 -1 10 -2 9 -2 -1 -14
-5 -28 -9z"/>
<path d="M0 1627 c0 -385 0 -395 20 -400 23 -6 45 -56 31 -70 -5 -5 -17 -5
-30 2 -21 12 -21 11 -21 -149 0 -88 3 -160 8 -160 4 0 23 5 42 11 38 11 206
46 230 48 33 2 137 19 159 26 28 9 132 77 150 99 22 26 6 44 -56 63 -92 28
-94 56 -5 73 32 5 91 17 132 25 41 8 102 19 135 25 122 21 77 28 -158 25 -146
-2 -244 -8 -257 -15 -11 -6 -54 -10 -97 -8 l-76 3 -15 53 c-8 28 -18 52 -23
52 -5 0 -9 11 -9 25 0 26 -18 33 -37 14 -20 -20 -43 -2 -43 32 0 21 -6 32 -17
36 -10 2 -26 15 -36 28 l-17 24 46 20 c26 12 50 21 54 21 12 0 41 -36 34 -43
-7 -7 18 -67 28 -67 4 0 12 9 18 20 11 21 64 27 105 11 11 -5 33 -3 50 5 16 6
66 17 110 23 146 21 269 43 346 62 41 10 90 19 109 19 18 0 51 6 74 13 l41 12
-60 5 c-94 9 -329 -15 -370 -37 -32 -17 -160 -45 -212 -46 -26 -1 -69 2 -95 6
-39 7 -48 12 -48 28 0 13 10 24 30 30 17 6 30 15 30 19 0 5 18 11 40 15 76 13
52 25 -49 25 -104 0 -120 7 -84 37 16 12 12 13 -32 11 -37 -2 -50 1 -50 11 0
8 7 17 15 21 33 17 181 60 204 60 14 0 27 4 30 9 12 19 -22 17 -99 -5 -44 -13
-97 -26 -117 -29 -42 -7 -39 -12 -59 80 -9 39 -23 70 -41 89 -17 17 -28 40
-28 56 0 15 -7 33 -15 40 -13 11 -15 -33 -15 -383z"/>
<path d="M314 1372 c5 -8 76 -4 76 4 0 2 -18 4 -41 4 -22 0 -38 -4 -35 -8z"/>
<path d="M3165 850 c-18 -8 -17 -9 7 -9 14 -1 35 -4 45 -7 16 -6 16 -5 -2 9
-23 19 -23 19 -50 7z"/>
<path d="M3066 843 c-2 -3 -2 -11 1 -19 7 -18 43 -18 43 0 0 13 -34 28 -44 19z"/>
<path d="M3340 820 c8 -5 28 -10 43 -10 16 0 35 -6 42 -14 10 -10 25 -11 53
-6 22 4 46 3 54 -1 15 -9 46 6 36 17 -13 12 -91 23 -168 23 -52 1 -70 -2 -60
-9z"/>
<path d="M3024 799 c-8 -14 11 -33 25 -25 16 10 13 36 -3 36 -8 0 -18 -5 -22
-11z"/>
<path d="M659 769 c-11 -7 -11 -9 4 -9 9 0 17 -4 17 -10 0 -5 5 -10 10 -10 15
0 12 27 -3 33 -8 3 -20 1 -28 -4z"/>
<path d="M3085 770 c-3 -5 -1 -10 4 -10 6 0 11 5 11 10 0 6 -2 10 -4 10 -3 0
-8 -4 -11 -10z"/>
<path d="M3680 769 c0 -4 -10 -10 -22 -12 -22 -4 -22 -4 2 -7 l25 -2 -25 -8
-25 -7 25 -11 25 -11 -25 -1 c-21 -1 -18 -3 15 -15 50 -18 55 -18 55 0 0 8 -9
15 -20 15 -11 0 -20 4 -20 9 0 18 18 21 33 7 7 -8 21 -14 30 -13 9 1 16 -2 16
-8 1 -5 -2 -10 -6 -10 -15 0 -33 -16 -33 -29 0 -21 49 -68 68 -64 9 2 17 12
17 23 0 13 8 21 24 23 18 3 22 8 18 28 -4 21 0 24 27 25 17 1 42 4 56 8 21 7
18 9 -25 15 -27 4 -81 17 -120 29 -72 22 -115 28 -115 16z"/>
<path d="M480 729 c0 -5 5 -7 10 -4 6 3 10 8 10 11 0 2 -4 4 -10 4 -5 0 -10
-5 -10 -11z"/>
<path d="M715 730 c-3 -5 -21 -8 -40 -6 -28 2 -35 -1 -35 -16 0 -18 15 -25 24
-10 3 5 19 7 36 4 25 -4 30 -1 30 17 0 23 -5 27 -15 11z"/>
<path d="M513 713 c-13 -2 -23 -11 -23 -19 0 -19 25 -18 44 2 17 17 20 25 9
23 -5 -1 -18 -4 -30 -6z"/>
<path d="M770 709 c0 -5 5 -7 10 -4 6 3 10 8 10 11 0 2 -4 4 -10 4 -5 0 -10
-5 -10 -11z"/>
<path d="M3075 707 c-4 -10 -5 -21 -1 -24 10 -10 18 4 13 24 -4 17 -4 17 -12
0z"/>
<path d="M155 689 c-60 -10 -120 -21 -132 -24 -23 -5 -23 -6 -23 -213 0 -148
3 -211 12 -220 9 -9 9 -12 0 -12 -7 0 -12 -6 -12 -14 0 -20 52 -7 57 15 3 11
9 19 14 19 5 0 9 7 9 15 0 12 -4 13 -19 4 -11 -8 -26 -9 -37 -4 -17 8 -17 9 5
13 19 3 21 6 10 14 -10 7 -7 7 10 3 38 -11 144 -9 173 3 23 10 27 16 22 40 -6
27 -5 28 35 24 27 -3 41 -9 41 -18 0 -8 4 -14 9 -14 5 0 18 -3 28 -7 14 -5 13
-2 -4 13 -25 21 -18 49 10 38 9 -3 14 -10 11 -15 -3 -5 0 -9 5 -9 6 0 11 3 11
8 0 4 12 15 28 24 26 17 26 17 5 18 -26 0 -29 10 -10 29 10 11 9 13 -3 9 -9
-3 -14 -16 -13 -32 1 -14 -2 -26 -7 -26 -12 0 -20 28 -14 45 4 10 0 15 -14 15
-28 0 -52 10 -52 22 0 6 7 7 17 4 19 -8 83 12 83 25 0 6 -8 6 -19 -1 -25 -13
-41 -13 -41 0 0 6 6 10 13 10 17 0 47 36 47 56 0 9 9 18 20 21 26 7 25 17 -2
31 -18 8 -19 11 -5 11 9 1 17 4 17 9 0 4 -18 6 -40 4 -22 -2 -40 -8 -40 -13 0
-5 5 -9 11 -9 5 0 7 -5 4 -10 -4 -7 -13 -6 -26 1 -20 10 -20 11 3 34 13 14 27
25 32 25 17 0 35 34 24 47 -7 9 -14 9 -29 0 -14 -9 -21 -9 -31 1 -16 16 -58
14 -193 -9z m125 -9 c0 -5 -9 -10 -20 -10 -11 0 -20 5 -20 10 0 6 9 10 20 10
11 0 20 -4 20 -10z m60 -30 c0 -5 -4 -10 -9 -10 -6 0 -13 5 -16 10 -3 6 1 10
9 10 9 0 16 -4 16 -10z m-25 -50 c3 -6 -1 -7 -9 -4 -18 7 -21 14 -7 14 6 0 13
-4 16 -10z m-33 -49 c25 -6 36 -5 32 1 -4 6 -1 9 5 7 7 -3 11 -9 10 -14 -9
-37 -12 -45 -20 -45 -4 0 -11 5 -14 10 -4 6 -16 8 -27 4 -14 -4 -18 -3 -13 6
4 6 -1 18 -11 25 -22 17 -13 18 38 6z m-195 -47 c-9 -9 -28 6 -21 18 4 6 10 6
17 -1 6 -6 8 -13 4 -17z m283 16 c0 -5 -4 -10 -10 -10 -5 0 -10 5 -10 10 0 6
5 10 10 10 6 0 10 -4 10 -10z m-135 -40 c-3 -5 -18 -10 -33 -10 -21 0 -24 2
-12 10 20 13 53 13 45 0z m85 0 c0 -5 -11 -10 -25 -10 -14 0 -25 5 -25 10 0 6
11 10 25 10 14 0 25 -4 25 -10z m-210 -26 c0 -3 -7 -12 -15 -20 -8 -9 -15 -13
-15 -11 0 3 -3 12 -6 21 -4 12 0 16 15 16 12 0 21 -3 21 -6z m151 -19 c22 7
22 5 9 -29 -11 -30 -34 -36 -25 -7 3 11 1 22 -5 26 -5 3 -9 14 -9 23 1 15 2
15 6 -1 3 -12 10 -16 24 -12z m-56 5 c3 -5 2 -10 -4 -10 -5 0 -13 5 -16 10 -3
6 -2 10 4 10 5 0 13 -4 16 -10z m-51 -19 c3 -5 -1 -12 -10 -15 -25 -10 -34 -7
-34 9 0 16 35 21 44 6z m70 -42 c-2 -37 -3 -39 -15 -39 -6 0 -9 9 -6 20 4 15
0 20 -14 20 -24 0 -25 17 -1 23 28 7 37 2 36 -24z m-144 -4 c0 -14 -7 -21 -19
-21 -14 0 -17 4 -10 12 7 9 5 15 -8 22 -14 9 -13 10 10 9 20 -2 27 -7 27 -22z
m60 -15 c0 -5 -9 -10 -19 -10 -11 0 -23 5 -26 10 -4 6 5 10 19 10 14 0 26 -4
26 -10z m80 -46 c0 -10 -6 -11 -22 -5 -31 11 -34 29 -3 24 14 -3 25 -11 25
-19z m-170 6 c0 -5 -5 -10 -11 -10 -5 0 -7 5 -4 10 3 6 8 10 11 10 2 0 4 -4 4
-10z m80 0 c0 -5 -4 -10 -10 -10 -5 0 -10 5 -10 10 0 6 5 10 10 10 6 0 10 -4
10 -10z"/>
<path d="M780 640 c0 -5 5 -10 10 -10 6 0 10 5 10 10 0 6 -4 10 -10 10 -5 0
-10 -4 -10 -10z"/>
<path d="M600 630 c0 -5 5 -10 11 -10 5 0 7 5 4 10 -3 6 -8 10 -11 10 -2 0 -4
-4 -4 -10z"/>
<path d="M3920 630 c0 -5 7 -10 16 -10 8 0 12 5 9 10 -3 6 -10 10 -16 10 -5 0
-9 -4 -9 -10z"/>
<path d="M4208 623 c6 -2 18 -2 25 0 6 3 1 5 -13 5 -14 0 -19 -2 -12 -5z"/>
<path d="M471 604 c0 -11 3 -14 6 -6 3 7 2 16 -1 19 -3 4 -6 -2 -5 -13z"/>
<path d="M3827 585 c-26 -36 -13 -48 44 -42 39 5 49 3 53 -11 2 -9 4 -6 3 8
-1 18 -9 26 -25 28 -12 2 -28 12 -35 23 -15 24 -18 24 -40 -6z"/>
<path d="M470 570 c-8 -5 -11 -12 -7 -16 4 -4 13 -2 19 4 6 6 10 14 7 16 -2 3
-11 1 -19 -4z"/>
<path d="M4038 543 c7 -3 16 -2 19 1 4 3 -2 6 -13 5 -11 0 -14 -3 -6 -6z"/>
<path d="M4093 524 c0 -9 11 -20 24 -25 13 -5 23 -13 23 -19 0 -5 5 -10 10
-10 16 0 12 18 -12 45 -25 28 -45 33 -45 9z"/>
<path d="M4551 505 c31 -32 49 -32 49 0 0 22 -4 25 -36 25 l-36 0 23 -25z"/>
<path d="M3840 511 c0 -5 9 -12 19 -16 11 -3 23 -14 26 -24 7 -23 55 -69 55
-53 0 7 -5 12 -11 12 -6 0 -3 7 5 16 21 20 21 38 0 30 -9 -4 -23 2 -32 13 -19
22 -62 37 -62 22z"/>
<path d="M4200 500 c0 -5 5 -10 10 -10 6 0 10 5 10 10 0 6 -4 10 -10 10 -5 0
-10 -4 -10 -10z"/>
<path d="M466 481 c-18 -7 -18 -8 -2 -14 19 -8 36 -1 36 14 0 10 -7 11 -34 0z"/>
<path d="M525 481 c-8 -14 7 -19 35 -10 27 8 27 8 -7 15 -12 2 -25 0 -28 -5z"/>
<path d="M3065 470 c4 -6 11 -8 16 -5 14 9 11 15 -7 15 -8 0 -12 -5 -9 -10z"/>
<path d="M605 460 c-3 -5 -1 -10 4 -10 6 0 11 5 11 10 0 6 -2 10 -4 10 -3 0
-8 -4 -11 -10z"/>
<path d="M4206 461 c-4 -7 -5 -15 -2 -18 9 -9 19 4 14 18 -4 11 -6 11 -12 0z"/>
<path d="M4310 430 c0 -5 5 -10 11 -10 5 0 7 5 4 10 -3 6 -8 10 -11 10 -2 0
-4 -4 -4 -10z"/>
<path d="M4465 430 c3 -5 12 -7 20 -3 21 7 19 13 -6 13 -11 0 -18 -4 -14 -10z"/>
<path d="M490 395 c-6 -8 -10 -20 -7 -27 4 -8 6 -7 6 5 1 10 9 17 22 17 11 0
17 5 14 10 -9 14 -21 12 -35 -5z"/>
<path d="M4166 381 c-4 -5 -2 -12 3 -15 5 -4 12 -2 15 3 4 5 2 12 -3 15 -5 4
-12 2 -15 -3z"/>
<path d="M4320 380 c0 -5 -7 -10 -15 -10 -8 0 -15 -4 -15 -9 0 -5 9 -7 20 -4
17 5 30 33 15 33 -3 0 -5 -4 -5 -10z"/>
<path d="M264 319 c-3 -6 0 -15 7 -20 22 -14 28 -11 22 11 -6 22 -18 26 -29 9z"/>
<path d="M3005 320 c-4 -6 5 -10 20 -10 15 0 24 4 20 10 -3 6 -12 10 -20 10
-8 0 -17 -4 -20 -10z"/>
<path d="M4420 311 c0 -11 5 -23 10 -26 6 -3 10 3 10 14 0 11 -4 23 -10 26 -5
3 -10 -3 -10 -14z"/>
<path d="M3070 310 c0 -5 7 -10 15 -10 8 0 15 5 15 10 0 6 -7 10 -15 10 -8 0
-15 -4 -15 -10z"/>
<path d="M4320 310 c0 -5 5 -10 10 -10 6 0 10 5 10 10 0 6 -4 10 -10 10 -5 0
-10 -4 -10 -10z"/>
<path d="M558 283 c6 -2 18 -2 25 0 6 3 1 5 -13 5 -14 0 -19 -2 -12 -5z"/>
<path d="M109 238 c-11 -21 -11 -22 4 -9 13 10 17 10 17 1 0 -7 6 -10 14 -7 8
3 16 1 19 -6 2 -7 6 -7 10 -1 3 6 -7 18 -23 27 -28 17 -29 17 -41 -5z"/>
<path d="M215 227 c11 -7 22 -21 23 -32 4 -19 19 -34 33 -35 4 0 9 13 11 30 5
30 -15 44 -25 18 -3 -7 -6 -3 -6 10 -1 17 -7 22 -28 22 -26 -1 -27 -1 -8 -13z"/>
<path d="M3210 230 c0 -5 5 -10 10 -10 6 0 10 5 10 10 0 6 -4 10 -10 10 -5 0
-10 -4 -10 -10z"/>
<path d="M3948 233 c6 -2 18 -2 25 0 6 3 1 5 -13 5 -14 0 -19 -2 -12 -5z"/>
<path d="M63 208 c-23 -38 -3 -59 45 -46 17 5 32 15 32 23 0 20 -26 19 -34 0
-8 -23 -29 -18 -23 5 6 23 -8 36 -20 18z"/>
<path d="M355 170 c-3 -5 -1 -10 4 -10 6 0 11 5 11 10 0 6 -2 10 -4 10 -3 0
-8 -4 -11 -10z"/>
<path d="M4398 153 c-10 -2 -18 -10 -18 -17 0 -7 -12 -19 -27 -26 -26 -12 -27
-13 -8 -21 30 -12 38 -10 31 6 -9 24 42 42 127 45 9 1 17 5 17 11 0 9 -89 11
-122 2z"/>
<path d="M4568 153 c7 -3 16 -2 19 1 4 3 -2 6 -13 5 -11 0 -14 -3 -6 -6z"/>
<path d="M22 131 c-11 -7 -10 -10 3 -15 26 -10 55 -7 55 5 0 6 -9 9 -20 6 -10
-3 -20 -1 -22 4 -2 4 -9 5 -16 0z"/>
<path d="M580 136 c0 -2 7 -9 15 -16 9 -7 15 -8 15 -2 0 5 -7 12 -15 16 -8 3
-15 4 -15 2z"/>
<path d="M3886 125 c-4 -10 1 -15 14 -15 11 0 20 7 20 15 0 8 -6 15 -14 15 -8
0 -16 -7 -20 -15z"/>
<path d="M345 120 c-3 -5 -1 -10 4 -10 6 0 11 5 11 10 0 6 -2 10 -4 10 -3 0
-8 -4 -11 -10z"/>
<path d="M3980 110 c0 -5 9 -10 19 -10 11 0 23 5 26 10 4 6 -5 10 -19 10 -14
0 -26 -4 -26 -10z"/>
<path d="M4276 87 c-3 -13 0 -26 8 -32 7 -5 11 -16 9 -22 -5 -15 23 -18 31 -4
3 5 26 7 51 6 25 -2 48 1 51 7 5 8 -6 9 -34 5 -25 -5 -43 -3 -47 4 -5 6 -12 4
-20 -8 -13 -17 -14 -17 -9 4 4 13 -1 28 -14 41 -20 20 -20 20 -26 -1z"/>
<path d="M4470 100 c0 -5 5 -10 11 -10 5 0 7 5 4 10 -3 6 -8 10 -11 10 -2 0
-4 -4 -4 -10z"/>
<path d="M280 90 c0 -5 5 -10 10 -10 6 0 10 5 10 10 0 6 -4 10 -10 10 -5 0
-10 -4 -10 -10z"/>
<path d="M4178 73 c-31 -5 -37 -18 -12 -27 17 -7 54 10 54 24 0 6 -3 9 -7 9
-5 -1 -20 -4 -35 -6z"/>
<path d="M18 63 c7 -3 16 -2 19 1 4 3 -2 6 -13 5 -11 0 -14 -3 -6 -6z"/>
<path d="M4021 54 c0 -11 3 -14 6 -6 3 7 2 16 -1 19 -3 4 -6 -2 -5 -13z"/>
<path d="M4240 54 c0 -8 5 -12 10 -9 6 4 8 11 5 16 -9 14 -15 11 -15 -7z"/>
<path d="M118 53 c7 -3 16 -2 19 1 4 3 -2 6 -13 5 -11 0 -14 -3 -6 -6z"/>
<path d="M4068 53 c-27 -7 -21 -23 7 -21 14 1 25 6 25 10 0 11 -13 15 -32 11z"/>
<path d="M3055 40 c3 -5 10 -10 16 -10 5 0 9 5 9 10 0 6 -7 10 -16 10 -8 0
-12 -4 -9 -10z"/>
<path d="M681 24 c0 -11 3 -14 6 -6 3 7 2 16 -1 19 -3 4 -6 -2 -5 -13z"/>
<path d="M3972 28 c6 -18 25 -20 31 -3 5 10 0 15 -14 15 -12 0 -19 -5 -17 -12z"/>
<path d="M311 14 c0 -11 3 -14 6 -6 3 7 2 16 -1 19 -3 4 -6 -2 -5 -13z"/>
<path d="M3246 21 c-4 -7 -5 -15 -2 -18 9 -9 19 4 14 18 -4 11 -6 11 -12 0z"/>
<path d="M4461 26 c12 -10 60 -16 54 -6 -3 5 -18 10 -32 10 -15 0 -24 -2 -22
-4z"/>
<path d="M0 10 c0 -13 37 -13 45 0 4 6 -5 10 -19 10 -14 0 -26 -4 -26 -10z"/>
</g>
</svg>
